<svg width="429" height="103" viewBox="0 0 429 103" fill="none" xmlns="http://www.w3.org/2000/svg">
<path d="M291.592 48V31.2H301.816V32.856H293.608V38.76H300.592V40.392H293.608V48H291.592ZM311.924 48.288C310.308 48.288 308.884 47.928 307.652 47.208C306.436 46.472 305.484 45.456 304.796 44.16C304.124 42.848 303.788 41.328 303.788 39.6C303.788 37.888 304.124 36.384 304.796 35.088C305.484 33.776 306.436 32.752 307.652 32.016C308.884 31.28 310.308 30.912 311.924 30.912C313.572 30.912 315.004 31.28 316.22 32.016C317.452 32.752 318.404 33.776 319.076 35.088C319.748 36.384 320.084 37.888 320.084 39.6C320.084 41.328 319.748 42.848 319.076 44.16C318.404 45.456 317.452 46.472 316.22 47.208C315.004 47.928 313.572 48.288 311.924 48.288ZM311.924 46.512C313.14 46.512 314.204 46.24 315.116 45.696C316.044 45.136 316.756 44.344 317.252 43.32C317.764 42.28 318.02 41.04 318.02 39.6C318.02 38.16 317.764 36.928 317.252 35.904C316.756 34.864 316.044 34.072 315.116 33.528C314.204 32.984 313.14 32.712 311.924 32.712C310.724 32.712 309.66 32.984 308.732 33.528C307.82 34.072 307.108 34.864 306.596 35.904C306.1 36.928 305.852 38.16 305.852 39.6C305.852 41.04 306.1 42.28 306.596 43.32C307.108 44.344 307.82 45.136 308.732 45.696C309.66 46.24 310.724 46.512 311.924 46.512ZM323.046 48V31.2H328.47C329.782 31.2 330.854 31.424 331.686 31.872C332.518 32.304 333.134 32.888 333.534 33.624C333.934 34.36 334.134 35.192 334.134 36.12C334.134 37.016 333.926 37.84 333.51 38.592C333.11 39.344 332.486 39.944 331.638 40.392C330.79 40.84 329.702 41.064 328.374 41.064H325.062V48H323.046ZM331.926 48L328.23 40.488H330.486L334.302 48H331.926ZM325.062 39.48H328.326C329.606 39.48 330.542 39.168 331.134 38.544C331.742 37.92 332.046 37.12 332.046 36.144C332.046 35.152 331.75 34.368 331.158 33.792C330.582 33.2 329.63 32.904 328.302 32.904H325.062V39.48ZM291.592 74V57.2H297.496C298.68 57.2 299.656 57.392 300.424 57.776C301.208 58.144 301.792 58.656 302.176 59.312C302.56 59.952 302.752 60.672 302.752 61.472C302.752 62.336 302.56 63.056 302.176 63.632C301.808 64.208 301.32 64.648 300.712 64.952C300.12 65.256 299.488 65.44 298.816 65.504L299.152 65.264C299.872 65.28 300.536 65.472 301.144 65.84C301.752 66.208 302.232 66.704 302.584 67.328C302.952 67.952 303.136 68.648 303.136 69.416C303.136 70.264 302.928 71.04 302.512 71.744C302.096 72.432 301.48 72.984 300.664 73.4C299.864 73.8 298.872 74 297.688 74H291.592ZM293.608 72.32H297.472C298.608 72.32 299.488 72.056 300.112 71.528C300.752 70.984 301.072 70.232 301.072 69.272C301.072 68.328 300.744 67.576 300.088 67.016C299.448 66.44 298.56 66.152 297.424 66.152H293.608V72.32ZM293.608 64.544H297.352C298.44 64.544 299.264 64.288 299.824 63.776C300.4 63.264 300.688 62.568 300.688 61.688C300.688 60.84 300.4 60.16 299.824 59.648C299.264 59.136 298.416 58.88 297.28 58.88H293.608V64.544ZM312.101 74.288C310.949 74.288 309.901 74.056 308.957 73.592C308.029 73.128 307.285 72.424 306.725 71.48C306.165 70.52 305.885 69.296 305.885 67.808V57.2H307.901V67.832C307.901 68.92 308.077 69.808 308.429 70.496C308.797 71.184 309.301 71.688 309.941 72.008C310.581 72.328 311.317 72.488 312.149 72.488C312.997 72.488 313.733 72.328 314.357 72.008C314.981 71.688 315.469 71.184 315.821 70.496C316.173 69.808 316.349 68.92 316.349 67.832V57.2H318.365V67.808C318.365 69.296 318.085 70.52 317.525 71.48C316.965 72.424 316.213 73.128 315.269 73.592C314.325 74.056 313.269 74.288 312.101 74.288ZM327.155 74.288C325.923 74.288 324.851 74.064 323.939 73.616C323.027 73.168 322.323 72.544 321.827 71.744C321.331 70.944 321.083 70.016 321.083 68.96H323.195C323.195 69.616 323.347 70.224 323.651 70.784C323.955 71.328 324.395 71.768 324.971 72.104C325.563 72.424 326.291 72.584 327.155 72.584C327.907 72.584 328.547 72.464 329.075 72.224C329.619 71.968 330.027 71.624 330.299 71.192C330.587 70.76 330.731 70.272 330.731 69.728C330.731 69.072 330.587 68.544 330.299 68.144C330.027 67.728 329.651 67.392 329.171 67.136C328.691 66.88 328.131 66.656 327.491 66.464C326.867 66.256 326.211 66.032 325.523 65.792C324.195 65.344 323.219 64.792 322.595 64.136C321.971 63.464 321.659 62.592 321.659 61.52C321.659 60.608 321.867 59.808 322.283 59.12C322.715 58.432 323.323 57.896 324.107 57.512C324.907 57.112 325.851 56.912 326.939 56.912C328.011 56.912 328.939 57.112 329.723 57.512C330.523 57.912 331.147 58.464 331.595 59.168C332.043 59.856 332.267 60.656 332.267 61.568H330.155C330.155 61.104 330.035 60.648 329.795 60.2C329.555 59.752 329.187 59.384 328.691 59.096C328.211 58.792 327.603 58.64 326.867 58.64C326.259 58.624 325.715 58.728 325.235 58.952C324.771 59.16 324.403 59.464 324.131 59.864C323.875 60.264 323.747 60.752 323.747 61.328C323.747 61.872 323.859 62.312 324.083 62.648C324.323 62.984 324.659 63.272 325.091 63.512C325.539 63.736 326.059 63.944 326.651 64.136C327.243 64.328 327.899 64.544 328.619 64.784C329.435 65.056 330.155 65.392 330.779 65.792C331.419 66.176 331.915 66.672 332.267 67.28C332.635 67.888 332.819 68.664 332.819 69.608C332.819 70.408 332.603 71.168 332.171 71.888C331.755 72.592 331.131 73.168 330.299 73.616C329.467 74.064 328.419 74.288 327.155 74.288ZM335.725 74V57.2H337.741V74H335.725ZM341.35 74V57.2H343.366L352.318 70.664V57.2H354.334V74H352.318L343.366 60.536V74H341.35ZM357.944 74V57.2H368.336V58.856H359.96V64.712H367.616V66.344H359.96V72.344H368.336V74H357.944ZM376.866 74.288C375.634 74.288 374.562 74.064 373.65 73.616C372.738 73.168 372.034 72.544 371.538 71.744C371.042 70.944 370.794 70.016 370.794 68.96H372.906C372.906 69.616 373.058 70.224 373.362 70.784C373.666 71.328 374.106 71.768 374.682 72.104C375.274 72.424 376.002 72.584 376.866 72.584C377.618 72.584 378.258 72.464 378.786 72.224C379.33 71.968 379.738 71.624 380.01 71.192C380.298 70.76 380.442 70.272 380.442 69.728C380.442 69.072 380.298 68.544 380.01 68.144C379.738 67.728 379.362 67.392 378.882 67.136C378.402 66.88 377.842 66.656 377.202 66.464C376.578 66.256 375.922 66.032 375.234 65.792C373.906 65.344 372.93 64.792 372.306 64.136C371.682 63.464 371.37 62.592 371.37 61.52C371.37 60.608 371.578 59.808 371.994 59.12C372.426 58.432 373.034 57.896 373.818 57.512C374.618 57.112 375.562 56.912 376.65 56.912C377.722 56.912 378.65 57.112 379.434 57.512C380.234 57.912 380.858 58.464 381.306 59.168C381.754 59.856 381.978 60.656 381.978 61.568H379.866C379.866 61.104 379.746 60.648 379.506 60.2C379.266 59.752 378.898 59.384 378.402 59.096C377.922 58.792 377.314 58.64 376.578 58.64C375.97 58.624 375.426 58.728 374.946 58.952C374.482 59.16 374.114 59.464 373.842 59.864C373.586 60.264 373.458 60.752 373.458 61.328C373.458 61.872 373.57 62.312 373.794 62.648C374.034 62.984 374.37 63.272 374.802 63.512C375.25 63.736 375.77 63.944 376.362 64.136C376.954 64.328 377.61 64.544 378.33 64.784C379.146 65.056 379.866 65.392 380.49 65.792C381.13 66.176 381.626 66.672 381.978 67.28C382.346 67.888 382.53 68.664 382.53 69.608C382.53 70.408 382.314 71.168 381.882 71.888C381.466 72.592 380.842 73.168 380.01 73.616C379.178 74.064 378.13 74.288 376.866 74.288ZM390.788 74.288C389.556 74.288 388.484 74.064 387.572 73.616C386.66 73.168 385.956 72.544 385.46 71.744C384.964 70.944 384.716 70.016 384.716 68.96H386.828C386.828 69.616 386.98 70.224 387.284 70.784C387.588 71.328 388.028 71.768 388.604 72.104C389.196 72.424 389.924 72.584 390.788 72.584C391.54 72.584 392.18 72.464 392.708 72.224C393.252 71.968 393.66 71.624 393.932 71.192C394.22 70.76 394.364 70.272 394.364 69.728C394.364 69.072 394.22 68.544 393.932 68.144C393.66 67.728 393.284 67.392 392.804 67.136C392.324 66.88 391.764 66.656 391.124 66.464C390.5 66.256 389.844 66.032 389.156 65.792C387.828 65.344 386.852 64.792 386.228 64.136C385.604 63.464 385.292 62.592 385.292 61.52C385.292 60.608 385.5 59.808 385.916 59.12C386.348 58.432 386.956 57.896 387.74 57.512C388.54 57.112 389.484 56.912 390.572 56.912C391.644 56.912 392.572 57.112 393.356 57.512C394.156 57.912 394.78 58.464 395.228 59.168C395.676 59.856 395.9 60.656 395.9 61.568H393.788C393.788 61.104 393.668 60.648 393.428 60.2C393.188 59.752 392.82 59.384 392.324 59.096C391.844 58.792 391.236 58.64 390.5 58.64C389.892 58.624 389.348 58.728 388.868 58.952C388.404 59.16 388.036 59.464 387.764 59.864C387.508 60.264 387.38 60.752 387.38 61.328C387.38 61.872 387.492 62.312 387.716 62.648C387.956 62.984 388.292 63.272 388.724 63.512C389.172 63.736 389.692 63.944 390.284 64.136C390.876 64.328 391.532 64.544 392.252 64.784C393.068 65.056 393.788 65.392 394.412 65.792C395.052 66.176 395.548 66.672 395.9 67.28C396.268 67.888 396.452 68.664 396.452 69.608C396.452 70.408 396.236 71.168 395.804 71.888C395.388 72.592 394.764 73.168 393.932 73.616C393.1 74.064 392.052 74.288 390.788 74.288ZM399.358 74V57.2H409.75V58.856H401.374V64.712H409.03V66.344H401.374V72.344H409.75V74H399.358ZM418.28 74.288C417.048 74.288 415.976 74.064 415.064 73.616C414.152 73.168 413.448 72.544 412.952 71.744C412.456 70.944 412.208 70.016 412.208 68.96H414.32C414.32 69.616 414.472 70.224 414.776 70.784C415.08 71.328 415.52 71.768 416.096 72.104C416.688 72.424 417.416 72.584 418.28 72.584C419.032 72.584 419.672 72.464 420.2 72.224C420.744 71.968 421.152 71.624 421.424 71.192C421.712 70.76 421.856 70.272 421.856 69.728C421.856 69.072 421.712 68.544 421.424 68.144C421.152 67.728 420.776 67.392 420.296 67.136C419.816 66.88 419.256 66.656 418.616 66.464C417.992 66.256 417.336 66.032 416.648 65.792C415.32 65.344 414.344 64.792 413.72 64.136C413.096 63.464 412.784 62.592 412.784 61.52C412.784 60.608 412.992 59.808 413.408 59.12C413.84 58.432 414.448 57.896 415.232 57.512C416.032 57.112 416.976 56.912 418.064 56.912C419.136 56.912 420.064 57.112 420.848 57.512C421.648 57.912 422.272 58.464 422.72 59.168C423.168 59.856 423.392 60.656 423.392 61.568H421.28C421.28 61.104 421.16 60.648 420.92 60.2C420.68 59.752 420.312 59.384 419.816 59.096C419.336 58.792 418.728 58.64 417.992 58.64C417.384 58.624 416.84 58.728 416.36 58.952C415.896 59.16 415.528 59.464 415.256 59.864C415 60.264 414.872 60.752 414.872 61.328C414.872 61.872 414.984 62.312 415.208 62.648C415.448 62.984 415.784 63.272 416.216 63.512C416.664 63.736 417.184 63.944 417.776 64.136C418.368 64.328 419.024 64.544 419.744 64.784C420.56 65.056 421.28 65.392 421.904 65.792C422.544 66.176 423.04 66.672 423.392 67.28C423.76 67.888 423.944 68.664 423.944 69.608C423.944 70.408 423.728 71.168 423.296 71.888C422.88 72.592 422.256 73.168 421.424 73.616C420.592 74.064 419.544 74.288 418.28 74.288Z" fill="white"/>
<path d="M196.274 93.422V95.4346H194.723V80.6121H196.274V86.8986C196.866 85.3714 198.322 84.3769 200.086 84.3769C203.224 84.3769 205.414 86.7447 205.414 90.0005C205.414 93.2799 203.129 95.6122 200.086 95.6122C198.394 95.624 196.973 94.7953 196.274 93.422ZM200.086 94.0731C202.312 94.0731 203.875 92.4393 203.875 90.0123C203.875 87.5379 202.36 85.9041 200.086 85.9041C197.778 85.9041 196.274 87.6208 196.274 90.0478C196.274 92.5103 197.849 94.0731 200.086 94.0731Z" fill="white"/>
<path d="M200.086 95.6478C198.441 95.6478 197.032 94.8664 196.31 93.5523V95.4584H194.7V80.5767H196.31V86.7211C196.949 85.2531 198.382 84.3415 200.086 84.3415C201.602 84.3415 202.975 84.9098 203.958 85.9398C204.929 86.9698 205.461 88.4141 205.461 90.0006C205.45 93.28 203.2 95.6478 200.086 95.6478ZM196.251 93.2682L196.31 93.3984C196.996 94.7599 198.417 95.5768 200.086 95.5768C203.153 95.5768 205.379 93.2326 205.379 90.0006C205.379 88.426 204.858 87.0053 203.899 85.9871C202.94 84.969 201.578 84.4007 200.086 84.4007C198.358 84.4007 196.902 85.3597 196.31 86.8987L196.239 87.0763V80.6477H194.759V95.3874H196.239V93.2682H196.251ZM200.086 94.1087C197.79 94.1087 196.251 92.4749 196.251 90.0598C196.251 87.5617 197.79 85.8806 200.086 85.8806C202.371 85.8806 203.911 87.5499 203.911 90.0243C203.911 92.4276 202.336 94.1087 200.086 94.1087ZM200.086 85.9398C197.825 85.9398 196.31 87.5972 196.31 90.0479C196.31 92.4276 197.825 94.0377 200.086 94.0377C201.176 94.0377 202.111 93.6588 202.786 92.9248C203.472 92.1908 203.839 91.1845 203.839 90.0006C203.839 87.5736 202.336 85.9398 200.086 85.9398Z" fill="white"/>
<path d="M209.049 96.1095H210.611C211.121 97.9446 212.873 98.8444 214.554 98.8444C216.756 98.8444 218.555 97.1277 218.532 94.6296L218.508 93.1853C217.549 94.9256 216.046 95.5768 214.471 95.5768C211.381 95.5768 208.907 93.1853 208.907 89.9295L208.883 84.7085H210.339L210.387 89.9295C210.41 92.3684 212.139 94.0614 214.471 94.0614C216.815 94.0614 218.473 92.321 218.473 89.894L218.449 84.7085H219.905L219.988 94.7125C220.012 98.0748 217.514 100.324 214.554 100.324C212.304 100.312 209.7 98.9391 209.049 96.1095Z" fill="white"/>
<path d="M214.542 100.348C212.352 100.348 209.676 99.0221 209.001 96.1096L208.989 96.0623H210.623L210.635 96.086C211.002 97.4356 212.364 98.7853 214.542 98.7853C215.608 98.7853 216.59 98.3828 217.312 97.6487C218.07 96.8792 218.496 95.8018 218.484 94.6061L218.461 93.2919C217.585 94.7955 216.199 95.5887 214.447 95.5887C212.932 95.5887 211.523 95.0204 210.481 93.9786C209.428 92.9249 208.847 91.4806 208.847 89.906L208.824 84.6494H210.351V84.6849L210.398 89.906C210.422 92.2738 212.127 94.0023 214.447 94.0023C216.78 94.0023 218.413 92.2975 218.413 89.8705L218.39 84.6494H219.917V84.6849L220 94.689C220.012 96.2754 219.443 97.7198 218.413 98.7498C217.419 99.7916 216.046 100.348 214.542 100.348ZM209.084 96.1452C209.759 98.9865 212.387 100.289 214.542 100.289C216.022 100.289 217.383 99.7324 218.39 98.7261C219.408 97.7079 219.964 96.2754 219.952 94.7126L219.87 84.7323H218.484L218.508 89.8823C218.508 92.3567 216.851 94.0852 214.471 94.0852C212.103 94.0852 210.375 92.333 210.351 89.9178L210.304 84.7204H208.907L208.93 89.9178C208.93 91.4687 209.499 92.9013 210.54 93.9431C211.57 94.9731 212.956 95.5414 214.459 95.5414C216.223 95.5414 217.62 94.7245 218.473 93.1617L218.532 93.0433L218.555 94.6179C218.567 95.8255 218.141 96.9265 217.372 97.7079C216.638 98.4538 215.631 98.8682 214.554 98.8682C213.678 98.8682 212.825 98.6314 212.127 98.1933C211.357 97.7079 210.825 96.9976 210.588 96.1452H209.084Z" fill="white"/>
<path d="M236.634 89.8469C236.634 86.7805 238.978 84.4956 241.961 84.4956C243.654 84.4956 245.134 85.3362 245.773 86.5911V84.7087H247.324V95.4349H245.773V93.0908C245.17 94.7246 243.702 95.5296 241.961 95.5296C238.788 95.5178 236.634 93.2447 236.634 89.8469ZM241.961 93.9669C244.388 93.9669 245.773 92.3212 245.773 89.539C245.75 87.3962 244.128 85.9992 241.961 85.9992C239.759 85.9992 238.173 87.633 238.173 89.835C238.173 92.4633 239.605 93.9669 241.961 93.9669Z" fill="white"/>
<path d="M241.961 95.5532C238.753 95.5532 236.598 93.2564 236.598 89.8467C236.598 88.3669 237.155 86.9935 238.149 85.999C239.144 85.0046 240.493 84.46 241.961 84.46C243.583 84.46 245.051 85.2413 245.738 86.4489V84.6731H247.348V95.4703H245.738V93.2682C245.111 94.7126 243.749 95.5532 241.961 95.5532ZM241.961 84.5192C240.517 84.5192 239.179 85.0519 238.196 86.0346C237.202 87.0172 236.657 88.3669 236.657 89.8349C236.657 93.209 238.788 95.4703 241.949 95.4703C243.773 95.4703 245.146 94.5942 245.726 93.0551L245.797 92.8775V95.3874H247.277V84.7323H245.797V86.7212L245.738 86.591C245.099 85.3361 243.619 84.5192 241.961 84.5192ZM241.961 94.0023C239.57 94.0023 238.137 92.4513 238.137 89.8467C238.137 87.6092 239.747 85.9754 241.961 85.9754C244.199 85.9754 245.785 87.4434 245.797 89.5389C245.797 92.3803 244.4 94.0023 241.961 94.0023ZM241.961 86.0464C239.783 86.0464 238.208 87.6447 238.208 89.8467C238.208 92.404 239.605 93.9431 241.961 93.9431C244.353 93.9431 245.738 92.3448 245.738 89.5508C245.714 87.4789 244.163 86.0464 241.961 86.0464Z" fill="white"/>
<path d="M250.663 80.6121H252.143V87.1472L254.025 88.7574L256.973 84.6965H258.773L255.15 89.7282L256.95 91.2554C258.572 92.6524 259.175 93.6469 259.175 95.4228H257.672C257.672 93.7061 256.926 93.197 255.683 92.1196L252.143 89.0652V95.4109H250.663V80.6121Z" fill="white"/>
<path d="M259.211 95.4584H257.636V95.4229C257.636 93.8364 256.985 93.28 255.908 92.3566C255.825 92.2855 255.742 92.2145 255.659 92.1434L252.178 89.1482V95.4584H250.628V80.5767H252.178V87.1355L254.025 88.7101L256.961 84.6611H258.844L258.808 84.7203L255.209 89.7283L256.985 91.2318C258.678 92.688 259.223 93.7062 259.223 95.4229V95.4584H259.211ZM257.695 95.3992H259.128C259.116 93.718 258.583 92.7117 256.914 91.291L255.091 89.7519L255.115 89.7283L258.69 84.744H256.973L254.013 88.8285L254.002 88.793L252.107 87.171V80.6477H250.699V95.3874H252.107V88.9942L255.695 92.0961C255.778 92.1671 255.86 92.2382 255.943 92.3092C257.032 93.2445 257.695 93.8009 257.695 95.3992Z" fill="white"/>
<path d="M263.26 80.6121C263.816 80.6121 264.242 81.0383 264.242 81.6065C264.242 82.1511 263.816 82.5774 263.26 82.5774C262.692 82.5774 262.265 82.1511 262.265 81.6065C262.265 81.0383 262.692 80.6121 263.26 80.6121ZM262.561 84.6965H264.017V95.4228H262.561V84.6965Z" fill="white"/>
<path d="M264.053 95.4584H262.526V84.6611H264.053V95.4584ZM262.597 95.3992H263.994V84.744H262.597V95.3992ZM263.26 82.613C262.68 82.613 262.23 82.1749 262.23 81.6067C262.23 81.0147 262.668 80.5767 263.26 80.5767C263.84 80.5767 264.266 81.0147 264.266 81.6067C264.266 82.1749 263.828 82.613 263.26 82.613ZM263.26 80.6477C262.703 80.6477 262.301 81.0502 262.301 81.6067C262.301 82.1394 262.715 82.542 263.26 82.542C263.793 82.542 264.207 82.1394 264.207 81.6067C264.207 81.0621 263.793 80.6477 263.26 80.6477Z" fill="white"/>
<path d="M267.368 95.8134L267.404 84.7084H268.883V95.8016C268.883 98.2997 267.546 99.3533 264.716 99.3415V97.8379C266.48 97.8142 267.368 97.3762 267.368 95.8134ZM268.197 80.6121C268.765 80.6121 269.191 81.0383 269.191 81.6065C269.191 82.1511 268.765 82.601 268.197 82.601C267.64 82.601 267.214 82.1511 267.214 81.6065C267.214 81.0383 267.64 80.6121 268.197 80.6121Z" fill="white"/>
<path d="M264.799 99.3534C264.775 99.3534 264.752 99.3534 264.716 99.3534H264.681V97.7907H264.716C266.622 97.7907 267.333 97.2579 267.333 95.8136L267.368 84.673H268.919V95.8017C268.919 96.9619 268.635 97.8144 268.055 98.3945C267.392 99.0338 266.326 99.3534 264.799 99.3534ZM264.752 99.2824C264.763 99.2824 264.787 99.2824 264.799 99.2824C266.303 99.2824 267.356 98.9628 268.007 98.3235C268.576 97.7552 268.86 96.9264 268.86 95.7899V84.7322H267.451L267.415 95.8136C267.415 97.4947 266.362 97.8499 264.763 97.8617V99.2824H264.752ZM268.197 82.6367C267.628 82.6367 267.19 82.1868 267.19 81.6067C267.19 81.0147 267.628 80.5767 268.197 80.5767C268.777 80.5767 269.227 81.0147 269.227 81.6067C269.215 82.1868 268.765 82.6367 268.197 82.6367ZM268.197 80.6477C267.664 80.6477 267.25 81.0621 267.25 81.6067C267.25 82.1394 267.664 82.5656 268.197 82.5656C268.73 82.5656 269.156 82.1394 269.156 81.6067C269.156 81.0502 268.753 80.6477 268.197 80.6477Z" fill="white"/>
<path d="M75.6459 68.9862C83.6818 68.9862 90.1961 62.4718 90.1961 54.436C90.1961 46.4001 83.6818 39.8857 75.6459 39.8857C67.61 39.8857 61.0957 46.4001 61.0957 54.436C61.0957 62.4718 67.61 68.9862 75.6459 68.9862Z" fill="white"/>
<path d="M75.6459 32.8533C76.0011 32.8533 76.3444 32.8889 76.6877 32.9007C73.6451 15.7104 58.6687 2.65186 40.6022 2.65186C20.3455 2.65186 3.92474 19.0727 3.92474 39.3293C3.92474 59.586 20.3455 76.0068 40.6022 76.0068C48.0372 76.0068 54.9393 73.781 60.705 69.9807C56.6087 66.0501 54.0514 60.545 54.0514 54.4242C54.0633 42.514 63.7239 32.8533 75.6459 32.8533ZM22.9383 48.2797C17.1372 48.2797 12.4252 43.5677 12.4252 37.7666C12.4252 31.9654 17.1372 27.2535 22.9383 27.2535C28.7395 27.2535 33.4514 31.9654 33.4514 37.7666C33.4514 43.5677 28.7395 48.2797 22.9383 48.2797Z" fill="white"/>
<path d="M187.312 36.8075V67.9798C187.312 71.3184 184.601 74.0295 181.262 74.0295H176.148V70.5252C173.697 73.3547 170.039 75.0714 165.055 75.0714C155.299 75.0714 147.26 66.5117 147.26 55.4067C147.26 44.3016 155.299 35.7419 165.055 35.7419C170.039 35.7419 173.697 37.4586 176.148 40.2881V36.7838H187.312V36.8075ZM176.148 55.4303C176.148 49.8423 172.43 46.3498 167.292 46.3498C162.154 46.3498 158.425 49.8423 158.425 55.4303C158.425 61.0184 162.154 64.5109 167.292 64.5109C172.43 64.5109 176.148 61.0184 176.148 55.4303Z" fill="white"/>
<path d="M263.603 38.4058C261.579 38.4058 259.684 37.8138 258.015 36.8667V74.0414H269.191V36.8667C267.522 37.8257 265.628 38.4058 263.603 38.4058Z" fill="white"/>
<path d="M130.508 65.8486H130.496L130.982 67.3285L130.508 65.8486Z" fill="white"/>
<path d="M146.148 74.0413L128.425 21.9138H119.072C115.579 21.9138 112.477 24.1396 111.353 27.4427L95.5119 74.0413H108.547L111.151 65.8486H127.371L123.713 54.6844H114.727L120.836 35.5406L126.85 54.6844L130.508 65.8486H130.52L130.994 67.3285L132.391 71.5906L132.355 71.6024L133.125 74.0413H146.148Z" fill="white"/>
<path d="M130.982 67.3286L132.343 71.6144L132.379 71.6025L130.982 67.3286Z" fill="white"/>
<path d="M215.88 35.7656C210.896 35.7656 207.616 37.6954 205.899 40.229V36.8075H200.761C197.423 36.8075 194.723 39.5068 194.723 42.8454V74.0414H205.899V53.0507C205.899 48.6584 207.983 46.0538 211.712 46.0538C215.288 46.0538 217.076 48.4334 217.076 52.1628V74.0532H228.252V53.0507C228.252 52.7784 228.287 52.5298 228.299 52.2693C228.003 45.1659 226.334 41.3774 224.428 39.199C222.356 36.9969 219.514 35.7656 215.88 35.7656Z" fill="white"/>
<path d="M236.432 35.7656C232.597 35.7656 229.743 36.7956 227.672 38.5005C229.069 40.5013 230.17 43.2124 230.785 46.9772C231.661 46.3734 232.751 46.0419 234.053 46.0419C237.628 46.0419 239.416 48.4216 239.416 52.1509V74.0414H250.592V51.1801C250.58 41.8746 245.004 35.7656 236.432 35.7656Z" fill="white"/>
<path d="M263.603 35.2566C267.304 35.2566 270.304 32.2565 270.304 28.5557C270.304 24.8548 267.304 21.8547 263.603 21.8547C259.902 21.8547 256.902 24.8548 256.902 28.5557C256.902 32.2565 259.902 35.2566 263.603 35.2566Z" fill="white"/>
</svg>
