<svg width="15" height="16" viewBox="0 0 15 16" fill="none" xmlns="http://www.w3.org/2000/svg">
<path d="M14.9933 14.5827L13.683 5.34472C13.5945 4.72999 13.0456 4.25187 12.3904 4.25187H11.4343C11.3457 3.19317 10.9562 2.21985 10.3541 1.45144C9.61045 0.512273 8.60117 0 7.52105 0C6.44093 0 5.43165 0.512273 4.68796 1.45144C4.06822 2.21985 3.69638 3.19317 3.60785 4.25187H2.65168C1.99653 4.25187 1.44761 4.71291 1.35908 5.34472L0.0133632 14.5827C-0.0397572 14.9413 0.0664836 15.2999 0.314379 15.5731C0.562274 15.8463 0.916411 16 1.30596 16H13.7007C14.0726 16 14.4444 15.8463 14.6923 15.5731C14.9225 15.2999 15.0287 14.9413 14.9933 14.5827ZM2.42149 5.4984C2.4392 5.39594 2.52773 5.32764 2.63397 5.32764H3.59014C3.62555 5.70331 3.69638 6.0619 3.78491 6.40341C3.85574 6.6254 4.06822 6.79616 4.31612 6.79616C4.36924 6.79616 4.42236 6.79616 4.45777 6.77908C4.59943 6.74493 4.72337 6.65955 4.7942 6.52295C4.86503 6.40341 4.88274 6.24973 4.84732 6.1302C4.77649 5.87407 4.72337 5.60085 4.68796 5.34472H10.3364C10.301 5.61793 10.2479 5.87407 10.1771 6.1302C10.1417 6.26681 10.1594 6.40341 10.2302 6.52295C10.301 6.64248 10.425 6.72785 10.5666 6.77908C10.6197 6.79616 10.6729 6.79616 10.7083 6.79616C10.9562 6.79616 11.1687 6.64248 11.2395 6.40341C11.3457 6.0619 11.4165 5.68623 11.4343 5.32764H12.3904C12.4967 5.32764 12.5852 5.39594 12.6029 5.4984L13.9132 14.7364C13.9309 14.8218 13.8955 14.873 13.8601 14.8901C13.8424 14.9242 13.7893 14.9584 13.7007 14.9584H1.30596C1.21743 14.9584 1.16431 14.9072 1.1466 14.8901C1.12889 14.8559 1.09348 14.8047 1.09348 14.7364L2.42149 5.4984ZM7.50334 1.0587C8.22932 1.0587 8.93759 1.43436 9.4688 2.10032C9.94688 2.6809 10.2302 3.43223 10.3187 4.26894H4.67025C4.75879 3.44931 5.0598 2.69797 5.52018 2.10032C6.06909 1.43436 6.77736 1.0587 7.50334 1.0587Z" fill="#1D1D1F"/>
</svg>
