<svg width="21" height="16" viewBox="0 0 21 16" fill="none" xmlns="http://www.w3.org/2000/svg">
<path d="M20.6609 3.60719L18.2527 11.065C18.0726 11.5961 17.6 11.9502 17.0373 11.9502H7.7422C7.20205 11.9502 6.6844 11.6183 6.50435 11.1314L2.94834 1.7704H0.900256C0.405115 1.7704 0 1.37206 0 0.885201C0 0.39834 0.405115 0 0.900256 0H3.57852C3.96112 0 4.29872 0.24343 4.43376 0.59751L8.1023 10.1798H16.6547L18.5678 4.2047H7.96726C7.47212 4.2047 7.06701 3.80636 7.06701 3.3195C7.06701 2.83264 7.47212 2.4343 7.96726 2.4343H19.8056C20.0982 2.4343 20.3683 2.58921 20.5258 2.81051C20.7059 3.03181 20.7509 3.34163 20.6609 3.60719ZM8.19233 13.1231C7.80972 13.1231 7.42711 13.278 7.15703 13.5436C6.88696 13.8091 6.72941 14.1853 6.72941 14.5615C6.72941 14.9378 6.88696 15.314 7.15703 15.5795C7.42711 15.8451 7.80972 16 8.19233 16C8.57494 16 8.95754 15.8451 9.22762 15.5795C9.4977 15.314 9.65524 14.9378 9.65524 14.5615C9.65524 14.1853 9.4977 13.8091 9.22762 13.5436C8.95754 13.278 8.57494 13.1231 8.19233 13.1231ZM16.2721 13.1231C15.8895 13.1231 15.5069 13.278 15.2368 13.5436C14.9668 13.8091 14.8092 14.1853 14.8092 14.5615C14.8092 14.9378 14.9668 15.314 15.2368 15.5795C15.5069 15.8451 15.8895 16 16.2721 16C16.6547 16 17.0373 15.8451 17.3074 15.5795C17.5775 15.314 17.735 14.9378 17.735 14.5615C17.735 14.1853 17.5775 13.8091 17.3074 13.5436C17.0373 13.278 16.6547 13.1231 16.2721 13.1231Z" fill="#787878"/>
</svg>
