<?xml version="1.0" encoding="utf-8"?>
<!-- Generator: Adobe Illustrator 26.1.0, SVG Export Plug-In . SVG Version: 6.00 Build 0)  -->
<svg version="1.1" id="Layer_1" xmlns="http://www.w3.org/2000/svg" xmlns:xlink="http://www.w3.org/1999/xlink" x="0px" y="0px"
	 viewBox="0 0 200 200" style="enable-background:new 0 0 200 200;" xml:space="preserve">
<style type="text/css">
	.st0{fill:#FFFFFF;}
	.st1{fill:none;stroke:#018047;stroke-width:2.7778;stroke-miterlimit:10;}
	.st2{fill:#E42313;}
</style>
<g>
	<circle class="st0" cx="100" cy="100" r="96.1"/>
	<circle class="st1" cx="100" cy="100" r="96.1"/>
	<g transform="translate(-57.04902 -196.85924)">
		<path d="M116.6,281.2c-5.4,0-10.6,1.7-14.4,4.2v-29.9H90v80.9h7.1l1.9-4.3c4.7,3.4,10.2,5.6,17.5,5.6c15.7,0,21.6-10.6,21.6-28.2
			C138.1,291.9,132.3,281.2,116.6,281.2 M113.8,291.4c10.6,0,12.2,8.1,12.2,18c0,10-1.6,18-12.2,18c-5.7,0-9.5-1.9-11.6-3.1v-29.8
			C104.3,293.4,108.1,291.4,113.8,291.4 M153.4,298c0-4.9,4-6.7,10.3-6.7c6.8,0,11.9,1.3,16.5,3v-10.5c-4.2-1.8-9.4-2.7-16.7-2.7
			c-15.8,0-21.9,7.9-21.9,17.1c0,9.3,4,14.3,20.3,15.7c7.2,0.6,8.9,2.7,8.9,6.7c0,4.7-4.2,6.7-12.8,6.7c-6.8,0-12.5-1.7-16.1-3v10.3
			c3.7,1.5,10.3,2.9,17.8,2.9c17.2,0,23-8.1,23-17.4c0-10-4.2-14.9-20.4-16.3C155.3,303.4,153.4,301.8,153.4,298 M201.9,337.2
			c1.3,0,2.4-0.2,2.4-0.2v-9.8c-3.4,0-4.5-1.1-4.5-4.1v-40.5h-12.1v40.6C187.6,332.4,192.1,337.2,201.9,337.2 M185.8,266.5
			c0,4.3,3.6,7.9,7.9,7.9c4.3,0,7.9-3.6,7.9-7.9c0-4.3-3.6-7.9-7.9-7.9C189.4,258.7,185.8,262.2,185.8,266.5"/>
		<path class="st2" d="M208.5,329.8c0,4.3,3.6,7.9,7.9,7.9c4.3,0,7.9-3.6,7.9-7.9s-3.6-7.9-7.9-7.9
			C212.1,322,208.5,325.5,208.5,329.8"/>
	</g>
</g>
</svg>
