<?xml version="1.0" encoding="utf-8"?>
<!-- Generator: Adobe Illustrator 26.1.0, SVG Export Plug-In . SVG Version: 6.00 Build 0)  -->
<svg version="1.1" id="Layer_1" xmlns="http://www.w3.org/2000/svg" xmlns:xlink="http://www.w3.org/1999/xlink" x="0px" y="0px"
	 viewBox="0 0 200 200" style="enable-background:new 0 0 200 200;" xml:space="preserve">
<style type="text/css">
	.st0{fill:none;stroke:#018047;stroke-width:2.7778;stroke-miterlimit:10;}
	.st1{fill-rule:evenodd;clip-rule:evenodd;}
	.st2{fill-rule:evenodd;clip-rule:evenodd;fill:#FFFFFF;}
	.st3{fill-rule:evenodd;clip-rule:evenodd;fill:#78057C;}
</style>
<circle class="st0" cx="100" cy="100" r="96.1"/>
<g>
	<g id="background">
		<path id="outer_black_triangle" class="st1" d="M156.5,138.2H43.5c-7.2,0-13.1-5.6-5.7-15.2l54.5-72.1c0,0,0,0,0,0
			c4.8-6.2,10.7-6.3,15.5,0c0,0,0,0,0,0l54.5,72.1c0.1,0.1,0.1,0.2,0.2,0.3C169.5,132.7,163.7,138.2,156.5,138.2z"/>
		<path id="white_triangle" class="st2" d="M134.2,134.8H65.8c-8.8,0-21.7-14.6-16.5-21.5l36.2-47.9c0,0,0,0,0,0l0.2-0.3
			c0,0,0-0.1,0.1-0.1c1.3-1.7,6.4-7.3,14.1-7.3c7.8,0,12.9,5.6,14.2,7.3c0.1,0.1,0.1,0.2,0.2,0.2l0.1,0.1c0,0,0,0.1,0.1,0.1
			l36.2,47.9C155.9,120.1,143,134.8,134.2,134.8z"/>
	</g>
	<g id="bsti_english">
		<path id="en_background" class="st3" d="M74.7,110.6h51.1v19.8H74.7V110.6z"/>
		<path id="en_typo" class="st2" d="M78.4,127.6v-14.3h6.2c1.6,0,2.7,0.3,3.4,0.8c1,0.7,1.4,1.6,1.4,2.9c0,1.2-0.5,2.2-1.6,3
			c0.6,0.2,1.2,0.6,1.5,1.2c0.4,0.6,0.6,1.3,0.6,2.1c0,0.6-0.1,1.2-0.3,1.7c-0.2,0.5-0.4,0.9-0.7,1.3c-0.2,0.2-0.5,0.5-0.9,0.7
			c-0.4,0.2-0.8,0.4-1.2,0.5c-0.4,0.1-1.1,0.2-2.1,0.2L78.4,127.6L78.4,127.6z M82.4,116.5v2.5h1.6c0.6,0,1.1-0.1,1.3-0.4
			c0.3-0.2,0.4-0.5,0.4-0.9c0-0.3-0.1-0.5-0.2-0.7c-0.1-0.2-0.3-0.4-0.6-0.4c-0.2-0.1-0.6-0.1-1.1-0.1L82.4,116.5L82.4,116.5z
			 M82.4,121.6v2.7h1.7c0.8,0,1.3-0.1,1.6-0.4c0.3-0.2,0.4-0.6,0.4-1c0-0.4-0.1-0.8-0.4-1c-0.3-0.2-0.8-0.3-1.6-0.3H82.4z
			 M102.7,117.4h-3.9c-0.1-0.4-0.3-0.7-0.5-0.9c-0.3-0.2-0.6-0.3-1.1-0.3c-0.5,0-0.8,0.1-1.1,0.3c-0.2,0.2-0.3,0.4-0.3,0.6
			c0,0.2,0.1,0.4,0.2,0.5c0.2,0.2,0.7,0.4,1.4,0.6l1.6,0.4c1.5,0.4,2.5,1,3.1,1.7c0.6,0.7,0.9,1.6,0.9,2.6c0,0.8-0.2,1.5-0.5,2.2
			s-0.7,1.2-1.1,1.5c-0.5,0.4-1,0.7-1.8,0.9c-0.7,0.2-1.5,0.3-2.3,0.3c-0.9,0-1.7-0.1-2.5-0.4s-1.4-0.6-1.9-1.1
			c-0.5-0.5-0.9-1-1.1-1.7c-0.2-0.4-0.3-1-0.4-1.7h4c0.1,0.5,0.3,0.8,0.6,1c0.3,0.2,0.8,0.4,1.4,0.4c0.6,0,1-0.1,1.2-0.3
			c0.2-0.2,0.3-0.4,0.3-0.7c0-0.3-0.1-0.5-0.2-0.7s-0.6-0.4-1.4-0.6l-1.4-0.4c-0.8-0.2-1.5-0.5-2.1-0.8c-0.7-0.4-1.2-0.8-1.5-1.4
			s-0.5-1.3-0.5-2.1c0-0.8,0.1-1.5,0.5-2.1c0.3-0.6,0.7-1.1,1.2-1.5c0.5-0.4,1.1-0.7,1.7-0.8c0.6-0.2,1.3-0.2,1.9-0.2
			c0.8,0,1.5,0.1,2.2,0.3c0.7,0.2,1.2,0.4,1.6,0.7c0.4,0.3,0.7,0.6,0.9,1c0.2,0.4,0.4,0.8,0.6,1.2
			C102.5,116.4,102.6,116.9,102.7,117.4z M104.4,113.3H116v3.8h-3.7v10.5h-4.1V117h-3.7V113.3z M118,127.6v-14.3h4.1v14.3H118z"/>
	</g>
	<g id="bsti_bengali">
		<path id="bengali_typo" class="st3" d="M66,104.9l1-1.3l-1.6-1.2l-10.3,13.6l-1-0.7c-0.3-0.2-0.3-0.6-0.1-0.9l35.8-47.3l-1.9-1.4
			l-36.2,47.8c-0.8,1.1-0.6,2.6,0.5,3.4l1.8,1.4l1.3,1l6.6,5l1.4-1.9l-6.6-5l6.4-8.5l-1.4,8.4c0,0.2,0,0.4,0.2,0.5l1.6,1.2
			c0.9,0.6,2.1,0.5,2.7-0.4l6.2-8.2c0.1-0.2,0.1-0.4-0.1-0.5L66,104.9z M69,111.4l-3.1,4c-0.2,0.3-0.6,0.3-0.8,0.1l-0.5-0.4
			c-0.2-0.1-0.3-0.4-0.2-0.6l0.8-4.3c0.4-1.9,1.7-1.8,2.7-1.1l0.8,0.6C69.6,110.6,69.4,111,69,111.4z M81.7,86.1l6.2,4.7l-1.6,2.1
			l-0.5-0.4c0,0-1.2-0.6-1.8,0.2c-0.6,0.8,0.3,3.1-0.6,4L81,99.9c-0.9,1.2-2.7,1.5-3.9,0.5l-1.8-1.3c-0.2-0.2-0.3-0.5-0.1-0.7
			l1.2-1.6c0.2-0.2,0.5-0.3,0.7-0.1l1.1,0.8c0.6,0.4,1.4,0.4,1.9-0.2c0.3-0.4,0.7-0.9,0.8-1.7c0.3-1.7,0-3.4,1.6-4.8
			c0.2-0.2,0.2-0.6,0-0.8l-2.4-1.8c-0.5-0.4-1.3-0.3-1.7,0.2L78,89.1c-0.4,0.5-0.3,1.3,0.2,1.7l1.3,1c0.3,0.2,0.3,0.6,0.1,0.8
			l-1.2,1.6c-0.2,0.3-0.6,0.3-0.8,0.1l-1.3-1c-1.4-1.1-1.7-3.1-0.6-4.5l1.6-2.1C78.3,85.3,80.3,85,81.7,86.1z M91.9,70.7l1-1.3
			l-1.6-1.2L81.5,81l1.6,1.2l2.4-3.1l4.3,3.2c0.4,0.3,0.5,0.9,0.2,1.3l-2.6,3.4l1.6,1.2l4.2-5.5c0.4-0.6,0.3-1.3-0.2-1.8l-1.3-1
			l2.8-3.7l2.3,1.8l1.8-2.4L91.9,70.7z M92.2,75.1l-2.3,3.1c-0.1,0.2-0.4,0.2-0.6,0.1L87.6,77c-0.2-0.1-0.2-0.4-0.1-0.6l2.3-3.1
			c0.1-0.2,0.4-0.2,0.6-0.1l1.7,1.3C92.3,74.7,92.3,74.9,92.2,75.1z M118.5,87.3l-3.7-4.9c-0.2-0.2-0.4-0.2-0.7-0.1l-1.1,0.8
			c-0.2,0.2-0.2,0.4-0.1,0.7l2.1,2.8c0.2,0.2,0.1,0.6-0.1,0.8l-0.7,0.5c-0.2,0.2-0.6,0.1-0.8-0.1l-3.4-4.5c-0.3-0.4-0.2-0.9,0.2-1.2
			l4.1-3.1l5.7,7.6c0.1,0.1,0.3,0.2,0.5,0.1l2.7-2.1c1.1-0.9,1.4-2.5,0.5-3.6l-3.7-4.8l-1.9,1.4l3.3,4.3c0.2,0.2,0.1,0.5-0.1,0.7
			l-0.8,0.6c-0.2,0.2-0.5,0.1-0.7-0.1l-4-5.3l-0.3-0.4l-3.7-4.9l1.1-0.9c0.2-0.2,0.5-0.1,0.7,0.1l3.7,5l1.9-1.4l-4.1-5.4
			c-0.8-1-2.2-1.2-3.3-0.5l-1.6,1.2l-1.6,1.2l-6.6,5l1.4,1.9l6.6-5l2.6,3.4l-6.3,4.8c-0.2,0.1-0.2,0.4-0.1,0.5l6.8,8.9
			c0.2,0.3,0.7,0.4,1,0.1l4.2-3.1C118.7,88,118.8,87.6,118.5,87.3z M149.1,114.4l-20.2-26.7l-1.9,1.4l19.5,25.8
			c0.2,0.3,0.2,0.7-0.1,0.9l-1,0.8l-4.5-6l-1.6-2.1l0,0l-1.6-2.1l-2-2.6l-10.2-13.5l-1.6,1.2l2.3,3l-2.7,2.1
			c-0.3,0.2-0.3,0.6-0.1,0.8l1.2,1.6c0.2,0.3,0.6,0.3,0.8,0.1l1.4-1.1l1.7,2.3l-2.3,1.8c-0.6,0.5-1.5,0.3-1.9-0.3l-2.5-3.3
			c-0.5-0.6-0.3-1.5,0.3-1.9l1.8-1.4L122,93l-2.6,2c-1.2,0.9-1.4,2.5-0.5,3.7l5.1,6.8c0.4,0.5,1.1,0.6,1.6,0.2l0.9-0.7l1.2,1.6
			l-1.4,1.1c-0.2,0.2-0.2,0.4-0.1,0.6l1,1.3c0.2,0.2,0.4,0.2,0.6,0.1l6.2-4.7l2,2.6l-6.6,5l1.6,2.1l6.6-5l1.6,2.1l-2.1,1.6
			c-0.2,0.2-0.3,0.5-0.1,0.7l0.7,1c0.3,0.4,0.7,0.6,1.2,0.5l1.1-0.1c0.5,0,1,0.2,1.3,0.6l1.8,2.4c0.3,0.4,0.2,1-0.2,1.3l-0.5,0.4
			c-0.3,0.2-0.8,0.3-1.1,0l-6.6-4.7c-0.2-0.1-0.5-0.1-0.7,0l-0.6,0.4c-0.5,0.4-0.6,1.1-0.2,1.6l6.6,8.8l1.8-1.4l-2.8-3.7l3.6,1.8
			c0.3,0.1,0.6,0.2,0.9,0.2l0.1,0c0.2,0,0.5-0.1,0.6-0.2l0.8-0.6c0.8-0.6,1-1.8,0.4-2.6l0.4,0.5c0.2,0.3,0.7,0.4,0.9,0.1l0.6-0.4
			c0.3-0.2,0.4-0.7,0.1-0.9l-0.4-0.5l1.6-1.2C149.7,116.8,149.9,115.4,149.1,114.4z M129.4,105.3c-0.1,0.1-0.2,0-0.2,0l-1.1-1.4
			c-0.1-0.1,0-0.2,0-0.2c0.8-0.6,1.5-1.4,2-2.2l0.5-0.8l1.8,2.4L129.4,105.3z"/>
	</g>
	<path id="inner_triangle" class="st1" d="M114.4,106.6H86c-3.7,0-3.2-3.3-1.1-6L97,84.4c0,0,0,0,0,0c0.2-0.2,1.4-1.7,3.1-1.7
		c1.6,0,2.8,1.3,3.1,1.7c0,0.1,0.1,0.1,0.1,0.1l12.2,16.2C117.6,103.3,118.1,106.6,114.4,106.6z"/>
</g>
</svg>
