<svg width="33" height="28" viewBox="0 0 33 28" fill="none" xmlns="http://www.w3.org/2000/svg">
<path d="M9.86939 9.01531C13.8875 5.20408 17.7599 4.13775 20.0904 4.83673C19.1461 3.34184 18.1918 1.91327 17.2426 0.596939L17.2376 0.591837C16.9714 0.234694 16.5495 0 16.0723 0C15.5901 0 15.1632 0.239796 14.902 0.612245L14.897 0.617347C12.9332 3.34694 10.9543 6.53571 9.0708 9.84694C9.337 9.54592 9.6032 9.26531 9.86939 9.01531Z" fill="#1D1D1F"/>
<path d="M22.1899 8.30613C21.8734 10.0255 20.7735 11.4082 20.7735 11.4082L20.6228 11.3622C20.6228 11.3622 21.778 9.70919 20.5525 7.93878C19.9347 7.05102 18.4731 5.51531 13.4355 8.15817C11.0447 9.41327 8.36765 12.3214 6.35359 14.8061C3.85736 19.551 1.64239 24.2143 0 27.8418L0.271221 28.0051C2.94324 24.1888 5.98694 20.0255 8.87494 16.6123C10.7584 14.3827 12.3958 12.6225 13.9427 11.1429L13.9528 11.1327C14.5053 10.5969 15.2486 10.2704 16.0723 10.2704C16.9061 10.2704 17.6595 10.6071 18.212 11.1531L18.2371 11.1735C19.779 12.648 21.4063 14.4031 23.2747 16.6123C26.1627 20.0255 29.2064 24.1837 31.8785 28.0051L32.1497 27.8418C29.7539 22.5459 26.1326 15.0459 22.1899 8.30613Z" fill="#1D1D1F"/>
</svg>
