<svg width="39" height="39" viewBox="0 0 39 39" fill="none" xmlns="http://www.w3.org/2000/svg">
<path d="M38.524 19.4999C38.524 8.89461 29.8457 0.311945 19.1993 0.475945C9.08599 0.626278 0.776652 8.81261 0.475986 18.9259C0.188985 28.6839 7.24098 36.8429 16.5207 38.2916V24.9939H11.6963V19.4999H16.5207V15.3043C16.5207 10.5346 19.3633 7.89694 23.7093 7.89694C25.7867 7.89694 27.9733 8.26594 27.9733 8.26594V12.9536H25.568C23.2037 12.9536 22.4657 14.4159 22.4657 15.9193V19.4999H27.741L26.8937 24.9939H22.4657V38.2916C31.5677 36.8703 38.524 28.9983 38.524 19.4999Z" fill="#1D1D1F"/>
<path d="M26.9073 24.994L27.7546 19.5H22.4793V15.933C22.4793 14.4296 23.2173 12.9673 25.5816 12.9673H27.9733V8.27965C27.9733 8.27965 25.8003 7.91064 23.7093 7.91064C19.3633 7.91064 16.5206 10.5483 16.5206 15.318V19.5H11.6963V24.994H16.5206V38.2916C17.491 38.442 18.4886 38.524 19.5 38.524C20.5113 38.524 21.509 38.442 22.4793 38.2916V24.994H26.9073Z" fill="white"/>
</svg>
