<svg width="41" height="41" viewBox="0 0 41 41" fill="none" xmlns="http://www.w3.org/2000/svg">
<g clip-path="url(#clip0_3113_188)">
<path d="M33.9614 33.9614C41.3906 26.5322 41.3863 14.4826 33.9517 7.04802C26.5171 -0.386574 14.4676 -0.390898 7.0383 7.03836C-0.390967 14.4676 -0.38664 26.5172 7.04796 33.9518C14.4826 41.3864 26.5321 41.3907 33.9614 33.9614Z" fill="#1D1D1F"/>
<path d="M20.5001 10.6736C23.6981 10.6736 24.0807 10.6873 25.3381 10.7419C26.4997 10.7966 27.1421 10.9879 27.5657 11.1519C28.1261 11.3706 28.5224 11.6303 28.9461 12.0539C29.3697 12.4776 29.6294 12.8739 29.8481 13.4343C30.0121 13.8579 30.2034 14.4866 30.2581 15.6619C30.3127 16.9193 30.3264 17.3019 30.3264 20.4999C30.3264 23.6979 30.3127 24.0806 30.2581 25.3379C30.2034 26.4996 30.0121 27.1419 29.8481 27.5656C29.6294 28.1259 29.3697 28.5223 28.9461 28.9459C28.5224 29.3696 28.1261 29.6293 27.5657 29.8479C27.1421 30.0119 26.5134 30.2033 25.3381 30.2579C24.0807 30.3126 23.6981 30.3263 20.5001 30.3263C17.3021 30.3263 16.9194 30.3126 15.6621 30.2579C14.5004 30.2033 13.8581 30.0119 13.4344 29.8479C12.8741 29.6293 12.4777 29.3696 12.0541 28.9459C11.6304 28.5223 11.3707 28.1259 11.1521 27.5656C10.9881 27.1419 10.7967 26.5133 10.7421 25.3379C10.6874 24.0806 10.6737 23.6979 10.6737 20.4999C10.6737 17.3019 10.6874 16.9193 10.7421 15.6619C10.7967 14.5003 10.9881 13.8579 11.1521 13.4343C11.3707 12.8739 11.6304 12.4776 12.0541 12.0539C12.4777 11.6303 12.8741 11.3706 13.4344 11.1519C13.8581 10.9879 14.4867 10.7966 15.6621 10.7419C16.9194 10.6873 17.3021 10.6736 20.5001 10.6736ZM20.5001 8.51428C17.2474 8.51428 16.8374 8.52795 15.5664 8.58262C14.2954 8.63728 13.4207 8.84228 12.6554 9.14295C11.8627 9.44362 11.1931 9.85362 10.5371 10.5233C9.86741 11.1929 9.45741 11.8626 9.15674 12.6416C8.85608 13.4069 8.66474 14.2679 8.59641 15.5526C8.54174 16.8236 8.52808 17.2336 8.52808 20.4863C8.52808 23.7389 8.54174 24.1489 8.59641 25.4199C8.65108 26.6909 8.85608 27.5656 9.15674 28.3309C9.45741 29.1236 9.86741 29.7933 10.5371 30.4493C11.2067 31.1189 11.8764 31.5289 12.6554 31.8296C13.4207 32.1303 14.2817 32.3216 15.5664 32.3899C16.8374 32.4446 17.2474 32.4583 20.5001 32.4583C23.7527 32.4583 24.1627 32.4446 25.4337 32.3899C26.7047 32.3353 27.5794 32.1303 28.3447 31.8296C29.1374 31.5289 29.8071 31.1189 30.4631 30.4493C31.1327 29.7796 31.5427 29.1099 31.8434 28.3309C32.1441 27.5656 32.3354 26.7046 32.4037 25.4199C32.4584 24.1489 32.4721 23.7389 32.4721 20.4863C32.4721 17.2336 32.4584 16.8236 32.4037 15.5526C32.3491 14.2816 32.1441 13.4069 31.8434 12.6416C31.5427 11.8489 31.1327 11.1793 30.4631 10.5233C29.7934 9.85362 29.1237 9.44362 28.3447 9.14295C27.5794 8.84228 26.7184 8.65095 25.4337 8.58262C24.1627 8.52795 23.7527 8.51428 20.5001 8.51428Z" fill="white"/>
<path d="M21.1288 14.3773C17.2338 13.9947 13.9948 17.2337 14.3775 21.1287C14.6645 24.0123 16.9878 26.3357 19.8715 26.6227C23.7665 27.0053 27.0055 23.7663 26.6228 19.8713C26.3358 16.9877 24.0125 14.6643 21.1288 14.3773ZM21.0195 24.4633C18.4091 24.7913 16.2088 22.591 16.5368 19.9807C16.7555 18.204 18.2041 16.769 19.9808 16.5367C22.5911 16.2087 24.7915 18.409 24.4635 21.0193C24.2311 22.796 22.7961 24.231 21.0195 24.4633Z" fill="white"/>
<path d="M27.8994 15.1085C28.4651 14.5428 28.4738 13.6342 27.9187 13.0791C27.3637 12.5241 26.4551 12.5327 25.8893 13.0985C25.3236 13.6642 25.315 14.5728 25.87 15.1278C26.4251 15.6829 27.3337 15.6742 27.8994 15.1085Z" fill="white"/>
</g>
<defs>
<clipPath id="clip0_3113_188">
<rect width="41" height="41" fill="white"/>
</clipPath>
</defs>
</svg>
