<svg width="39" height="40" viewBox="0 0 39 40" fill="none" xmlns="http://www.w3.org/2000/svg">
<g clip-path="url(#clip0_3113_196)">
<path d="M32.2954 33.1238C39.3673 25.8705 39.3715 14.1148 32.3046 6.86677C25.2377 -0.38129 13.776 -0.377071 6.70404 6.8762C-0.367893 14.1295 -0.372008 25.8851 6.69485 33.1332C13.7617 40.3812 25.2235 40.377 32.2954 33.1238Z" fill="#1D1D1F"/>
<path d="M20.904 17.4667C21.203 17.12 21.45 16.7733 21.749 16.48C22.685 15.5733 23.803 15.12 25.09 15.12C25.805 15.12 26.507 15.1733 27.196 15.3867C28.769 15.8533 29.679 16.96 30.121 18.5333C30.446 19.72 30.511 20.92 30.511 22.1467C30.511 24.7067 30.498 27.28 30.511 29.84C30.511 30.08 30.446 30.1467 30.212 30.1467C28.925 30.1333 27.638 30.1333 26.351 30.1467C26.13 30.1467 26.078 30.08 26.078 29.8533C26.091 27.4133 26.091 24.9733 26.078 22.5333C26.078 21.92 26.039 21.3067 25.87 20.72C25.558 19.6267 24.804 19.0667 23.673 19.1333C22.152 19.2133 21.346 19.9867 21.151 21.5867C21.099 21.9733 21.086 22.3467 21.086 22.7333C21.086 25.1067 21.086 27.48 21.086 29.8533C21.086 30.0933 21.034 30.16 20.787 30.16C19.487 30.1467 18.187 30.1467 16.9 30.16C16.757 30.16 16.627 30.04 16.627 29.8933C16.627 25.2 16.627 20.4933 16.627 15.8C16.627 15.5733 16.705 15.52 16.913 15.52C18.148 15.5333 19.383 15.5333 20.605 15.52C20.826 15.52 20.891 15.5867 20.891 15.8133C20.891 16.3467 20.904 16.9067 20.904 17.4667Z" fill="#FDFDFD"/>
<path d="M13.845 22.8401C13.845 25.1601 13.845 27.4934 13.845 29.8134C13.845 30.0668 13.78 30.1468 13.52 30.1468C12.233 30.1334 10.946 30.1334 9.65899 30.1468C9.45099 30.1468 9.38599 30.0934 9.38599 29.8801C9.38599 25.1734 9.38599 20.4668 9.38599 15.7601C9.38599 15.4934 9.46399 15.4668 9.90599 15.5201C11.024 15.6668 12.155 15.6934 13.273 15.5201C13.78 15.4401 13.832 15.5334 13.832 15.8134C13.845 18.1468 13.845 20.4934 13.845 22.8401Z" fill="#FDFDFD"/>
<path d="M14.1959 10.8267C14.1959 12.3067 13.0129 13.4934 11.5829 13.48C10.2439 13.4534 9.11288 12.3334 9.06088 10.96C8.99588 9.4667 10.1919 8.21337 11.6349 8.21337C13.0389 8.20003 14.1959 9.3867 14.1959 10.8267Z" fill="#FDFDFD"/>
</g>
<defs>
<clipPath id="clip0_3113_196">
<rect width="39" height="40" fill="white"/>
</clipPath>
</defs>
</svg>
