<svg width="13" height="16" viewBox="0 0 13 16" fill="none" xmlns="http://www.w3.org/2000/svg">
<g clip-path="url(#clip0_5257_607)">
<path d="M6.5228 1H0.958C0.448671 1 0.0351562 1.41771 0.0351562 1.93221V13.0678C0.0351562 13.5823 0.448671 14 0.958 14H9.11231C9.62164 14 10.0352 13.5823 10.0352 13.0678V4.548L6.5228 1ZM0.509185 1.93221C0.509185 1.6826 0.7109 1.47884 0.958 1.47884H6.18997V3.952C6.18997 4.4665 6.60349 4.88421 7.11282 4.88421H9.56113V13.0678C9.56113 13.3174 9.35941 13.5212 9.11231 13.5212H0.958C0.7109 13.5212 0.509185 13.3174 0.509185 13.0678V1.93221ZM7.11282 4.40792C6.86572 4.40792 6.664 4.20415 6.664 3.95455V1.81505L9.2283 4.40537H7.11282V4.40792Z" fill="white"/>
<path d="M2.03516 8V11H8.03516V8H2.03516ZM7.64346 10.6389H2.4243V8.36113H7.64346V10.6389Z" fill="white"/>
</g>
<defs>
<clipPath id="clip0_5257_607">
<rect width="12" height="16" fill="white" transform="translate(0.0351562)"/>
</clipPath>
</defs>
</svg>
