<svg width="9" height="11" viewBox="0 0 9 11" fill="none" xmlns="http://www.w3.org/2000/svg">
<path d="M8.03756 4.64884L1.52945 0.65956C1.21553 0.467032 0.835953 0.459028 0.513986 0.638217C0.192019 0.817405 0 1.14332 0 1.51059V9.48915C0 9.85642 0.192019 10.1823 0.513986 10.3615C0.668495 10.4473 0.836398 10.4905 1.00386 10.4905C1.18516 10.4905 1.36601 10.4402 1.52945 10.3402L8.03756 6.35091C8.3363 6.16772 8.51493 5.84936 8.51493 5.49987C8.51493 5.15039 8.3363 4.83203 8.03756 4.64884ZM7.58386 5.61726L1.07575 9.60653C1.01547 9.64344 0.962327 9.62432 0.935534 9.60965C0.909187 9.59497 0.864532 9.55985 0.864532 9.48915V1.51059C0.864532 1.44034 0.909187 1.40477 0.935534 1.3901C0.950717 1.38165 0.974831 1.37187 1.00386 1.37187C1.02574 1.37187 1.04985 1.3772 1.07575 1.39321L7.58386 5.38249C7.64102 5.41761 7.64995 5.47097 7.64995 5.49987C7.64995 5.52877 7.64102 5.58213 7.58386 5.61726Z" fill="white"/>
</svg>
