<svg width="16" height="16" viewBox="0 0 16 16" fill="none" xmlns="http://www.w3.org/2000/svg">
<g clip-path="url(#clip0_5679_137)">
<path fill-rule="evenodd" clip-rule="evenodd" d="M11.3279 10.336C13.5359 7.58402 13.0879 3.58402 10.3359 1.40802C7.58393 -0.767975 3.58393 -0.351975 1.40793 2.36802C-0.768068 5.08802 -0.352068 9.12002 2.39993 11.296C4.73593 13.152 8.03193 13.152 10.3679 11.296L14.8479 15.776C15.1039 16.064 15.5519 16.064 15.8399 15.808C16.1279 15.552 16.1279 15.104 15.8719 14.816C15.8719 14.816 15.8719 14.816 15.8399 14.784L11.3279 10.336ZM6.36793 11.712C3.39193 11.712 0.991932 9.31203 0.991932 6.33602C0.991932 3.36002 3.39193 0.992025 6.36793 0.992025C9.34393 0.992025 11.7439 3.39202 11.7439 6.36802C11.7119 9.31203 9.31193 11.712 6.36793 11.712Z" fill="#1D1D1F"/>
</g>
<defs>
<clipPath id="clip0_5679_137">
<rect width="16" height="16" fill="white"/>
</clipPath>
</defs>
</svg>
