<svg width="18" height="16" viewBox="0 0 18 16" fill="none" xmlns="http://www.w3.org/2000/svg">
<path d="M8.71935 16L7.45504 14.8665C5.98728 13.5441 4.77384 12.4033 3.81471 11.4441C2.85559 10.485 2.09264 9.62398 1.52589 8.86104C0.959128 8.09809 0.563124 7.39691 0.337875 6.75749C0.112625 6.11807 0 5.46412 0 4.79564C0 3.42961 0.457766 2.28883 1.3733 1.3733C2.28883 0.457766 3.42961 0 4.79564 0C5.55132 0 6.27066 0.159855 6.95368 0.479564C7.63669 0.799273 8.22525 1.24977 8.71935 1.83106C9.21344 1.24977 9.802 0.799273 10.485 0.479564C11.168 0.159855 11.8874 0 12.6431 0C14.0091 0 15.1499 0.457766 16.0654 1.3733C16.9809 2.28883 17.4387 3.42961 17.4387 4.79564C17.4387 5.46412 17.3261 6.11807 17.1008 6.75749C16.8756 7.39691 16.4796 8.09809 15.9128 8.86104C15.346 9.62398 14.5831 10.485 13.624 11.4441C12.6649 12.4033 11.4514 13.5441 9.98365 14.8665L8.71935 16ZM8.71935 13.6458C10.1144 12.396 11.2625 11.3243 12.1635 10.4305C13.0645 9.53679 13.7766 8.75931 14.2997 8.09809C14.8229 7.43688 15.1862 6.84832 15.3896 6.33243C15.5931 5.81653 15.6948 5.30427 15.6948 4.79564C15.6948 3.92371 15.4042 3.19709 14.8229 2.6158C14.2416 2.03451 13.515 1.74387 12.6431 1.74387C11.96 1.74387 11.3279 1.93642 10.7466 2.32153C10.1653 2.70663 9.76567 3.19709 9.54768 3.79292H7.89101C7.67302 3.19709 7.27339 2.70663 6.6921 2.32153C6.11081 1.93642 5.47866 1.74387 4.79564 1.74387C3.92371 1.74387 3.19709 2.03451 2.6158 2.6158C2.03451 3.19709 1.74387 3.92371 1.74387 4.79564C1.74387 5.30427 1.8456 5.81653 2.04905 6.33243C2.2525 6.84832 2.6158 7.43688 3.13896 8.09809C3.66213 8.75931 4.37421 9.53679 5.2752 10.4305C6.1762 11.3243 7.32425 12.396 8.71935 13.6458Z" fill="#787878"/>
</svg>
