<svg width="42" height="42" viewBox="0 0 42 42" fill="none" xmlns="http://www.w3.org/2000/svg">
<g clip-path="url(#clip0_3113_204)">
<path d="M34.7797 34.78C42.3957 27.164 42.4001 14.8206 34.7896 7.21013C27.1792 -0.400333 14.8357 -0.395903 7.21979 7.22003C-0.396136 14.836 -0.400568 27.1794 7.2099 34.7899C14.8204 42.4003 27.1638 42.3959 34.7797 34.78Z" fill="#1D1D1F"/>
<path d="M33.4461 14.742C33.1521 13.622 32.2701 12.74 31.1501 12.446C29.1201 11.9 21.0001 11.9 21.0001 11.9C21.0001 11.9 12.8801 11.9 10.8501 12.446C9.73006 12.74 8.84806 13.622 8.55406 14.742C8.00806 16.772 8.00806 21 8.00806 21C8.00806 21 8.00806 25.228 8.55406 27.258C8.84806 28.378 9.73006 29.26 10.8501 29.554C12.8801 30.1 21.0001 30.1 21.0001 30.1C21.0001 30.1 29.1201 30.1 31.1501 29.554C32.2701 29.26 33.1521 28.378 33.4461 27.258C33.9921 25.228 33.9921 21 33.9921 21C33.9921 21 33.9921 16.772 33.4461 14.742ZM18.3961 24.892V17.094L25.1441 20.986L18.3961 24.892Z" fill="white"/>
</g>
<defs>
<clipPath id="clip0_3113_204">
<rect width="42" height="42" fill="white"/>
</clipPath>
</defs>
</svg>
