<?xml version="1.0" encoding="utf-8"?>
<!-- Generator: Adobe Illustrator 26.1.0, SVG Export Plug-In . SVG Version: 6.00 Build 0)  -->
<svg version="1.1" id="Layer_1" xmlns="http://www.w3.org/2000/svg" xmlns:xlink="http://www.w3.org/1999/xlink" x="0px" y="0px"
	 viewBox="0 0 295.6 36.5" style="enable-background:new 0 0 295.6 36.5;" xml:space="preserve">
<style type="text/css">
	.st0{fill:#1D1D1F;}
</style>
<g>
	<g>
		<g>
			<path class="st0" d="M15.7,21.8c1.4-1.4,2.7-2.6,3.9-3.7l0,0c0.5-0.4,1.1-0.7,1.7-0.7c0.7,0,1.3,0.2,1.7,0.7l0,0
				c1.2,1.1,2.5,2.3,3.9,3.7c4,3.9,8.2,8.8,12.1,13.2c-3.3-4.6-6.9-9.4-10.4-13.4c-1.6-1.9-3.1-3.5-4.5-5l0,0
				c-0.7-0.7-1.7-1.2-2.8-1.2c-1,0-1.9,0.4-2.6,1l0,0c-1.4,1.5-3,3.2-4.7,5.1c-3.5,4-7.1,8.9-10.4,13.4
				C7.4,30.6,11.7,25.8,15.7,21.8z"/>
		</g>
		<g>
			<path class="st0" d="M13.1,11.8c5.3-5,10.4-6.4,13.5-5.4c-1.3-1.9-2.5-3.8-3.8-5.5l0,0C22.5,0.3,21.9,0,21.3,0s-1.2,0.3-1.5,0.8
				l0,0c-2.6,3.6-5.2,7.7-7.7,12C12.4,12.4,12.7,12.1,13.1,11.8z"/>
			<path class="st0" d="M29.4,10.8c-0.4,2.2-1.9,4-1.9,4l-0.2-0.1c0,0,1.5-2.2-0.1-4.5C26.4,9,24.4,7,17.8,10.5
				c-3.2,1.6-6.7,5.4-9.4,8.7c-3.3,6.2-6.2,12.3-8.4,17l0.4,0.2C3.9,31.4,8,26,11.8,21.5c2.5-2.9,4.7-5.2,6.7-7.1l0,0
				c0.7-0.7,1.7-1.1,2.8-1.1c1.1,0,2.1,0.4,2.8,1.2l0,0c2,1.9,4.2,4.2,6.7,7.1c3.8,4.4,7.9,9.9,11.4,14.9l0.4-0.2
				C39.4,29.4,34.6,19.6,29.4,10.8z"/>
		</g>
	</g>
	<g>
		<path class="st0" d="M64.9,28.6L63,24.8H52l-1.9,3.8h-5.3L55,7.9h5l10.2,20.8C70.2,28.6,64.9,28.6,64.9,28.6z M60.7,19.9l-3.1-6.4
			l-3.2,6.4H60.7z"/>
		<polygon class="st0" points="87.8,28.6 77.1,20.5 76.2,20.5 76.2,28.6 71.4,28.6 71.4,7.9 76.2,7.9 76.2,15.6 77.1,15.6 87.2,7.9 
			95.4,7.9 82,18 96,28.6 		"/>
		<rect x="97" y="7.9" class="st0" width="4.7" height="20.8"/>
		<path class="st0" d="M107.6,20.6c0,0.4,0,0.6,0,0.7c0,1.6,0.2,2,0.2,2.1c0,0,0.1,0.2,0.4,0.3c0.3,0.1,1.1,0.2,3.1,0.2
			c1.2,0,2.2,0,3.2-0.1c0.6,0,0.8-0.1,0.8-0.1c0.1,0,0.1-0.1,0.1-0.1c0.1-0.1,0.2-0.3,0.2-0.6c0.1-0.5,0.1-1.9,0.1-4.2V7.9h4.7v10.7
			c0,2.6-0.1,4.2-0.1,4.9c-0.1,1.3-0.5,2.4-1.1,3.1c-0.6,0.8-1.5,1.4-2.6,1.7c-1.1,0.3-3,0.5-5.8,0.5c-2.1,0-3.6-0.2-4.7-0.6
			s-2.6-1.4-3-3.9c-0.1-0.8-0.2-2-0.2-3.6"/>
		<path class="st0" d="M135.3,28.6V7.9h11.2c3.6,0.1,4.5,0.2,4.9,0.2c0.7,0.1,1.4,0.4,2,0.9s1.1,1.1,1.3,1.8c0.4,1,0.6,2.3,0.6,4.1
			c0,1.3-0.1,2.4-0.3,3.2c-0.2,1-0.7,1.7-1.3,2.3c-0.6,0.6-1.2,1-1.8,1.2s-1.4,0.3-2.4,0.3c-0.4,0-1.3,0-3,0H140v6.8L135.3,28.6
			L135.3,28.6z M146.5,17c2.3,0,3.1-0.1,3.4-0.1c0.3,0,0.4-0.1,0.5-0.2c0,0,0.1-0.1,0.1-0.2c0-0.2,0.1-0.6,0.1-1.5
			c0-1.1-0.1-1.5-0.1-1.7c0-0.1,0-0.1-0.1-0.1c-0.1-0.1-0.2-0.1-0.5-0.2c-0.2,0-1-0.1-3.5-0.1H140V17C140.1,17,146.5,17,146.5,17z"
			/>
		<polygon class="st0" points="156.9,28.6 156.9,7.9 161.6,7.9 161.6,23.7 174,23.7 174,28.6 		"/>
		<path class="st0" d="M195.6,28.6l-1.9-3.8h-11l-1.9,3.8h-5.3l10.2-20.8h4.9l10.2,20.8H195.6z M191.4,19.9l-3.1-6.4l-3.2,6.4H191.4
			z"/>
		<path class="st0" d="M216.7,16c0.5,0.1,0.9,0.2,1.3,0.3c0.9,0.3,1.6,0.9,2.1,1.7c0.6,1,0.9,2.3,0.9,4c0,1.5-0.2,2.8-0.7,3.8
			c-0.7,1.3-1.8,2.1-3.5,2.5c-1.4,0.3-3.7,0.5-7.1,0.5c-1.8,0-3.1-0.1-4-0.2c-1-0.1-1.8-0.4-2.5-0.9c-0.8-0.5-1.4-1.2-1.7-2.1
			c-0.3-0.8-0.4-1.8-0.4-3.1v-0.2l4.7,0.2c0,0.2,0,0.3,0,0.3c0,1,0.1,0.7,0.1,0.9c0,0,0,0,0.1,0s0.9,0.3,5.1,0.3
			c2.2,0,3.8-0.1,4.7-0.4c0.1,0,0.5-0.1,0.5-1.3c0-0.8-0.1-1.1-0.1-1.2c0,0,0,0-0.1-0.1c-0.1,0-0.5-0.1-1.2-0.2c-0.5,0-2,0-6.8,0
			c0,0-2.2,0-3.5-0.5c-1-0.4-1.9-1-2.4-1.8c-0.7-1-1-2.3-1-4.1c0-2,0.5-3.6,1.6-4.6c0.5-0.5,1.1-0.8,1.7-1.1
			c0.6-0.2,1.3-0.4,2.2-0.5c1.4-0.2,3.1-0.3,5.1-0.3c1.9,0,3.3,0.1,4.3,0.3c1.2,0.3,2.1,0.7,2.9,1.4c0.6,0.6,1.1,1.3,1.3,2.1
			c0.2,0.7,0.3,1.6,0.3,2.9v0.1h-4.8v-0.4c0-0.8-0.1-1.1-0.1-1.1l0,0c0,0-0.2-0.2-0.7-0.3s-1.5-0.3-3.4-0.3s-3.4,0.1-4.3,0.2
			c-1.1,0.2-1.3,0.4-1.3,0.4l0,0c0,0-0.1,0.2-0.1,1s0.1,1,0.1,1.1l0,0c0,0,0.1,0.1,0.2,0.1c0.3,0.1,1.2,0.3,3.7,0.4
			c0.7,0,2.4,0,5.1,0c0.3,0,0.6,0,0.9,0"/>
		<path class="st0" d="M291.2,16c0.5,0.1,1,0.2,1.3,0.3c0.9,0.3,1.6,0.9,2.1,1.7c0.6,1,1,2.3,1,4c0,1.5-0.2,2.8-0.7,3.8
			c-0.7,1.3-1.8,2.1-3.5,2.5c-1.4,0.3-3.7,0.5-7.1,0.5c-1.8,0-3.1-0.1-4-0.2c-1-0.1-1.8-0.4-2.5-0.9c-0.8-0.5-1.4-1.2-1.7-2.1
			c-0.3-0.8-0.4-1.8-0.4-3.1v-0.2l4.7,0.2c0,0.2,0,0.3,0,0.3c0,1,0.1,0.7,0.1,0.9l0,0c0.1,0,1,0.3,5.1,0.3c2.2,0,3.8-0.1,4.7-0.4
			c0.1,0,0.5-0.1,0.5-1.3c0-0.8-0.1-1.1-0.1-1.2c0,0,0,0-0.1-0.1c-0.1,0-0.5-0.1-1.2-0.2c-0.5,0-2,0-6.8,0c0,0-2.2,0-3.5-0.5
			c-1-0.4-1.9-1-2.4-1.8c-0.7-1-1-2.3-1-4.1c0-2,0.5-3.6,1.6-4.6c0.5-0.5,1.1-0.8,1.7-1.1c0.6-0.2,1.3-0.4,2.2-0.5
			c1.4-0.2,3.1-0.3,5.1-0.3c1.9,0,3.3,0.1,4.3,0.3c1.2,0.3,2.1,0.7,2.9,1.4c0.6,0.6,1.1,1.3,1.3,2.1c0.2,0.7,0.3,1.6,0.3,2.9v0.1
			h-4.8v-0.4c0-0.8-0.1-1.1-0.1-1.1l0,0c0,0-0.2-0.2-0.7-0.3s-1.5-0.3-3.4-0.3s-3.4,0.1-4.3,0.2c-1,0.2-1.3,0.4-1.3,0.4l0,0
			c0,0-0.1,0.2-0.1,1s0.1,1,0.1,1.1l0,0c0,0,0.1,0.1,0.2,0.1c0.3,0.1,1.2,0.3,3.7,0.4c0.7,0,2.4,0,5.1,0c0.3,0,0.6,0,0.9,0L291.2,16
			z"/>
		<polygon class="st0" points="230.3,28.6 230.3,12.8 222.4,12.8 222.4,7.9 242.8,7.9 242.8,12.8 235,12.8 235,28.6 		"/>
		<rect x="245.3" y="7.9" class="st0" width="4.7" height="20.8"/>
		<path class="st0" d="M264.1,28.7c-3.6,0-6-0.1-7.4-0.5c-1.6-0.4-2.8-1.4-3.3-3c-0.5-1.3-0.7-3.5-0.7-6.7c0-3,0.2-5.2,0.5-6.6
			c0.5-2.1,1.9-3.4,3.9-3.7c1.5-0.3,3.7-0.4,6.6-0.4c2.8,0,4.8,0.2,6.1,0.5c0.8,0.2,1.5,0.6,2.1,1.2c0.6,0.6,1,1.4,1.2,2.2
			c0.1,0.6,0.2,1.8,0.2,3.4V16h-4.5v-0.9c0-0.3,0-0.6,0-0.7c0-1-0.1-1.3-0.1-1.3s-0.1-0.1-0.2-0.1c-0.2-0.1-1.2-0.4-4.9-0.4
			c-2,0-3.5,0.1-4.5,0.2c-0.8,0.1-1.2,0.2-1.3,0.3c0,0.1-0.1,0.4-0.2,0.9c-0.1,0.8-0.2,2-0.2,3.4c0,0.7,0,1.6,0.1,2.8
			c0.1,1.5,0.1,2.1,0.1,2.3c0.1,0.5,0.2,0.7,0.2,0.7s0.1,0.1,0.6,0.2c1.1,0.1,2.8,0.2,4.9,0.2c0.6,0,1.5,0,2.6-0.1
			c1.4-0.1,1.8-0.1,1.9-0.1c0.6-0.1,0.8-0.2,0.8-0.2c0-0.1,0.1-0.5,0.1-2.3v-0.7h4.7V21c0,1.7-0.1,2.9-0.3,3.6
			c-0.4,1.9-1.5,3.1-3.3,3.6C268.9,28.6,266.9,28.7,264.1,28.7z"/>
	</g>
</g>
</svg>
